<svg width="32" height="84" viewBox="0 0 32 84" fill="none" xmlns="http://www.w3.org/2000/svg">
<path d="M32 83.2H0L0 81.058H32V83.2ZM32 78.916H0L0 75.703H32V78.916ZM32 73.561H0L0 72.49H32V73.561Z" fill="#F1F1F1"/>
<path d="M32 72.8442H0L0 71.7732H32V72.8442ZM32 69.6312H0L0 66.4183H32V69.6312ZM32 64.2763H0L0 62.1343H32V64.2763Z" fill="#F1F1F1"/>
<path d="M32 62.4885H0L0 61.4175H32V62.4885ZM32 59.2755H0L0 57.1335H32V59.2755ZM32 54.9915H0L0 51.7786H32V54.9915Z" fill="#F1F1F1"/>
<path d="M32 52.1328H0L0 51.0618H32V52.1328ZM32 48.9198H0L0 45.7068H32V48.9198ZM32 43.5648H0L0 41.4228H32V43.5648Z" fill="#F1F1F1"/>
<path d="M32 41.7771H0L0 39.6351H32V41.7771ZM32 37.4931H0L0 34.2801H32V37.4931ZM32 32.1381H0L0 31.0671H32V32.1381Z" fill="#F1F1F1"/>
<path d="M32 31.4213H0L0 30.3503H32V31.4213ZM32 28.2084H0L0 26.0664H32V28.2084ZM32 23.9244H0L0 20.7114H32V23.9244Z" fill="#F1F1F1"/>
<path d="M32 21.0656H0L0 18.9236H32V21.0656ZM32 16.7816H0L0 13.5687H32V16.7816ZM32 11.4267H0L0 10.3557H32V11.4267Z" fill="#F1F1F1"/>
<path d="M32 10.7099H0L0 8.5679H32V10.7099ZM32 6.42591H0L0 5.35492H32V6.42591ZM32 3.21293H0L0 -4.57764e-05H32V3.21293Z" fill="#F1F1F1"/>
</svg>
