<svg width="19" height="25" viewBox="0 0 19 25" fill="none" xmlns="http://www.w3.org/2000/svg">
<path d="M15 2.20312L11.3906 10.6406H16.6406C17.25 10.6406 17.8125 11.0156 18.0469 11.5781C18.2344 12.1875 18.0938 12.8438 17.625 13.2656L5.625 23.7656C5.0625 24.1875 4.3125 24.2344 3.75 23.8125C3.1875 23.4375 2.95312 22.6875 3.23438 22.0312L6.84375 13.5938H1.64062C0.984375 13.5938 0.421875 13.2188 0.234375 12.6562C0 12.0469 0.140625 11.3906 0.609375 10.9688L12.6094 0.46875C13.1719 0.046875 13.9219 0 14.4844 0.421875C15.0469 0.796875 15.2812 1.54688 15 2.20312Z" fill="#00B1FC"/>
</svg>
