<svg width="21" height="21" viewBox="0 0 21 21" fill="none" xmlns="http://www.w3.org/2000/svg">
<path d="M0 1.875C0 0.84375 0.796875 0 1.875 0H4.125C5.15625 0 6 0.84375 6 1.875V4.125C6 5.20312 5.15625 6 4.125 6H1.875C0.796875 6 0 5.20312 0 4.125V1.875ZM0 9.375C0 8.34375 0.796875 7.5 1.875 7.5H4.125C5.15625 7.5 6 8.34375 6 9.375V11.625C6 12.7031 5.15625 13.5 4.125 13.5H1.875C0.796875 13.5 0 12.7031 0 11.625V9.375ZM6 16.875V19.125C6 20.2031 5.15625 21 4.125 21H1.875C0.796875 21 0 20.2031 0 19.125V16.875C0 15.8438 0.796875 15 1.875 15H4.125C5.15625 15 6 15.8438 6 16.875ZM7.5 1.875C7.5 0.84375 8.29688 0 9.375 0H11.625C12.6562 0 13.5 0.84375 13.5 1.875V4.125C13.5 5.20312 12.6562 6 11.625 6H9.375C8.29688 6 7.5 5.20312 7.5 4.125V1.875ZM13.5 9.375V11.625C13.5 12.7031 12.6562 13.5 11.625 13.5H9.375C8.29688 13.5 7.5 12.7031 7.5 11.625V9.375C7.5 8.34375 8.29688 7.5 9.375 7.5H11.625C12.6562 7.5 13.5 8.34375 13.5 9.375ZM7.5 16.875C7.5 15.8438 8.29688 15 9.375 15H11.625C12.6562 15 13.5 15.8438 13.5 16.875V19.125C13.5 20.2031 12.6562 21 11.625 21H9.375C8.29688 21 7.5 20.2031 7.5 19.125V16.875ZM21 1.875V4.125C21 5.20312 20.1562 6 19.125 6H16.875C15.7969 6 15 5.20312 15 4.125V1.875C15 0.84375 15.7969 0 16.875 0H19.125C20.1562 0 21 0.84375 21 1.875ZM15 9.375C15 8.34375 15.7969 7.5 16.875 7.5H19.125C20.1562 7.5 21 8.34375 21 9.375V11.625C21 12.7031 20.1562 13.5 19.125 13.5H16.875C15.7969 13.5 15 12.7031 15 11.625V9.375ZM21 16.875V19.125C21 20.2031 20.1562 21 19.125 21H16.875C15.7969 21 15 20.2031 15 19.125V16.875C15 15.8438 15.7969 15 16.875 15H19.125C20.1562 15 21 15.8438 21 16.875Z" fill="#00B1FC"/>
</svg>
